# xmcd
#
# Track frame offsets:
#	150
#	12129
#	23826
#	35691
#	49513
#	61447
#	75179
#	88773
#	100037
#	112323
#	124676
#	139202
#	149775
#	163411
#	176212
#	194033
#	209533
#	229944
#	242386
#	256604
#	267062
#	281843
#	296687
#	310320
#	326177
#	339640
#
# Disc length: 4754 seconds
#
# Revision: 0
# Processed by: cddbd v1.5.2PL0 Copyright (c) Steve Scherf et al.
# Submitted via: EasyCDDAExtractor 16.0.6.1
#
DISCID=9012901a
DTITLE=Kari Tapio - OLen suomalainen Cd 2
DYEAR=1900
DGENRE=
TTITLE0=Vähän ennen kyyneleitä
TTITLE1=Tukholma
TTITLE2=Amado mio
TTITLE3=Pistolero
TTITLE4=Vain lunta kaikkialla
TTITLE5=Hiljainen kitara
TTITLE6=Kenties kenties kenties
TTITLE7=Rebecca
TTITLE8=Sanoit liian paljon
TTITLE9=Kasvot hämärässä
TTITLE10=Viisi viimeistä minuuttia
TTITLE11=Kuin filminauhaa
TTITLE12=Salattu suru
TTITLE13=Suudelmin suljetut kirjeet
TTITLE14=Laula kanssain
TTITLE15=Mihin vain mua pyydätkin
TTITLE16=Me vain ja yö
TTITLE17=Op eh op
TTITLE18=Niinkuin yö
TTITLE19=Etäisyyden äänet
TTITLE20=Kylähäät
TTITLE21=Onnettaren poika
TTITLE22=Romanella
TTITLE23=Valentina
TTITLE24=Menetetty mies
TTITLE25=Menköön bussi viimeinen
EXTD=
EXTT0=
EXTT1=
EXTT2=
EXTT3=
EXTT4=
EXTT5=
EXTT6=
EXTT7=
EXTT8=
EXTT9=
EXTT10=
EXTT11=
EXTT12=
EXTT13=
EXTT14=
EXTT15=
EXTT16=
EXTT17=
EXTT18=
EXTT19=
EXTT20=
EXTT21=
EXTT22=
EXTT23=
EXTT24=
EXTT25=
PLAYORDER=
